<svg width="100" height="100" viewBox="0 0 100 100" fill="none" xmlns="http://www.w3.org/2000/svg">
<circle cx="50" cy="50" r="50" fill="white"/>
<g clip-path="url(#clip0_585_4)">
<path d="M60.147 54.9483C59.5498 56.595 59.0069 58.1337 58.4641 59.6725C57.8397 61.4002 56.8625 61.8321 55.1796 61.1572C54.121 60.7253 53.0352 60.3743 51.868 59.9694C51.868 60.2663 51.8408 60.4823 51.8408 60.6713C51.8408 63.0469 51.8408 65.4225 51.8408 67.825C51.8408 68.014 51.8408 68.176 51.8408 68.3649C51.8137 69.0128 51.4337 69.4178 50.8636 69.4448C50.2936 69.4717 49.8321 69.0398 49.8321 68.3649C49.805 66.5563 49.8321 64.7746 49.8321 62.9659C49.8321 62.021 49.8321 61.0492 49.8321 59.9964C48.7735 60.4283 47.7692 60.7793 46.792 61.1842C45.2719 61.8051 44.2947 61.4002 43.6975 59.8614C43.1546 58.4307 42.6389 56.9999 42.1231 55.5692C42.0417 55.3802 41.9874 55.1912 41.8788 54.9753C40.1416 55.4882 38.4315 55.9741 36.7485 56.487C35.7442 56.784 34.7127 57.0809 33.7355 57.4588C32.2697 58.0527 31.4011 59.1865 31.1025 60.7253C30.3425 64.4776 29.5824 68.23 28.8224 72.0093C28.5781 73.2511 28.3066 74.4659 28.1166 75.7077C27.8995 77.1924 28.5509 77.9483 30.0439 77.9753C31.7811 78.0023 33.5183 77.9753 35.337 77.9753C35.337 77.7053 35.337 77.4624 35.337 77.2194C35.337 74.4659 35.337 71.6854 35.337 68.9318C35.337 68.6889 35.337 68.4189 35.3913 68.203C35.527 67.6901 35.9071 67.4201 36.4499 67.4741C36.9657 67.5281 37.2643 67.852 37.3186 68.3379C37.3457 68.5539 37.3457 68.7969 37.3457 69.0128C37.3457 71.7394 37.3457 74.4389 37.3457 77.1654C37.3457 77.4084 37.3457 77.6513 37.3457 77.9753C38.5129 77.9753 39.653 77.9213 40.7659 78.0023C41.1459 78.0293 41.6074 78.2182 41.8517 78.5152C42.2588 79.0011 41.9331 79.757 41.2816 79.9459C41.2002 79.9729 41.0916 79.9999 41.0102 79.9999C37.1828 79.9999 33.3826 80.0809 29.5553 79.9189C26.9223 79.811 25.565 77.8943 26.0808 75.1408C27.0308 70.0656 28.0623 65.0175 29.1481 59.9694C29.691 57.5128 31.3739 55.9741 33.7626 55.2182C36.3685 54.4084 39.0287 53.7605 41.5802 52.8696C42.666 52.4917 43.6161 51.7358 44.5661 51.0609C44.9733 50.764 44.7018 49.3063 44.2404 49.0363C39.9787 46.4717 37.7529 42.7464 37.5629 37.8063C37.5357 37.4013 37.4 37.2394 36.9928 37.1314C35.4999 36.6725 34.387 35.7546 33.8712 34.1889C33.5455 33.1901 33.7084 32.2452 34.1427 31.3274C34.3327 30.9494 34.4413 30.4905 34.4684 30.0586C34.5227 28.007 34.3598 25.9283 34.8756 23.9037C35.1199 22.9588 35.4456 22.014 35.7713 21.0962C36.0156 20.3943 36.5857 20.1513 37.1557 20.3673C37.7257 20.5833 37.9429 21.1502 37.6443 21.825C36.6128 24.1736 36.4499 26.6302 36.5314 29.1408C38.8658 29.0328 40.1144 28.3849 40.4402 25.3344C40.603 23.8227 41.5259 22.7699 42.9646 22.6349C43.5075 22.5809 44.0504 22.6889 44.5661 22.7699C48.8278 23.3368 53.1166 23.4448 57.3783 22.7699C57.894 22.6889 58.4098 22.6619 58.9255 22.6619C60.2827 22.6619 61.3414 23.6877 61.5857 25.0645C61.7214 25.9283 61.9114 26.8192 62.2914 27.629C62.6443 28.4119 63.3229 28.9788 64.3001 28.9788C64.6801 28.9788 65.033 29.1408 65.4945 29.2217C65.5759 27.548 65.5759 25.9283 65.1687 24.3086C63.8658 19.0175 60.6085 15.4271 55.3967 13.8074C49.6421 12.0257 44.539 13.3485 40.3045 17.7487C39.9516 18.0997 39.5987 18.3966 39.0558 18.2617C38.2686 18.0457 38.1058 17.1548 38.7029 16.48C40.603 14.3203 42.9103 12.7546 45.6519 11.8368C53.198 9.3532 61.4771 12.4847 65.4402 19.2605C66.7431 21.5011 67.4489 23.9037 67.5574 26.4952C67.5846 27.3051 67.6117 28.1149 67.6117 28.9248C67.6117 29.9236 67.666 30.8685 68.1003 31.8403C69.0232 33.8379 67.6932 36.2405 65.3316 37.0234C64.6801 37.2394 64.4901 37.5363 64.4358 38.1842C64.1644 42.9084 61.8843 46.4448 57.894 48.9823C56.9983 49.5492 57.0254 50.737 57.8397 51.4119C59.6313 52.9236 61.8571 53.3556 64.0287 54.0034C65.6573 54.4894 67.3131 54.9483 68.9147 55.5422C70.9505 56.298 72.2263 57.8098 72.8235 59.8884C73.0949 60.8872 73.2849 61.8861 73.4749 62.9119C73.6378 63.6948 73.312 64.2077 72.6877 64.3156C72.0906 64.4236 71.6291 64.0457 71.4934 63.3168C71.3034 62.453 71.1405 61.5621 70.9505 60.6713C70.5976 59.1325 69.7018 57.9448 68.236 57.4318C65.603 56.514 62.9157 55.7851 60.147 54.9483ZM62.59 34.8908C62.5357 34.8908 62.5086 34.8908 62.4543 34.8908C62.4543 33.8919 62.4 32.8661 62.4543 31.8673C62.5086 31.0574 62.4271 30.3825 61.5857 29.9506C61.3142 29.8156 61.1242 29.5187 60.9342 29.2757C60.0384 28.2229 59.7398 26.9541 59.577 25.6044C59.4955 24.7675 59.197 24.5786 58.3555 24.6865C53.4966 25.3344 48.6378 25.4424 43.7789 24.7135C42.6932 24.5516 42.5303 24.6865 42.4217 25.7933C42.2317 27.683 41.4717 29.2217 39.8973 30.3556C39.7344 30.4905 39.5987 30.7875 39.5987 31.0304C39.5716 32.3802 39.5173 33.73 39.5716 35.0797C39.6258 36.6725 39.5444 38.2922 39.8701 39.8309C41.0916 45.6079 46.4391 49.3602 52.3294 48.7124C57.1068 48.1994 61.2056 44.5551 62.1286 39.8579C62.4543 38.2652 62.4543 36.5645 62.59 34.8908ZM46.7377 50.1431C46.8191 50.629 46.7648 51.0879 46.9548 51.3849C48.2035 53.1936 49.5064 54.9483 50.8093 56.757C50.9179 56.676 50.9722 56.622 51.0265 56.568C52.3566 54.8673 53.7138 53.1936 54.9896 51.4659C55.2067 51.1689 55.1796 50.683 55.2882 50.1701C52.3837 51.061 49.6693 51.061 46.7377 50.1431ZM56.4825 52.9236C55.1524 54.6243 53.8495 56.298 52.4923 58.0527C53.8224 58.5387 55.0982 58.9976 56.4011 59.4565C57.0254 57.7558 57.6226 56.1091 58.1926 54.4624C58.2469 54.3274 58.1383 54.0574 58.0297 53.9764C57.5411 53.5985 57.0254 53.2746 56.4825 52.9236ZM49.2078 58.0527C47.932 56.298 46.7377 54.6243 45.5162 52.9506C45.0276 53.2746 44.5933 53.5985 44.159 53.8415C43.8332 54.0304 43.7789 54.2464 43.9147 54.5973C44.3761 55.7581 44.7561 56.9459 45.1904 58.1337C45.3533 58.5656 45.5162 58.9976 45.679 59.4295C46.9005 58.9706 48.0135 58.5117 49.2078 58.0527ZM37.5629 31.1114C36.3414 31.4894 35.6356 32.3532 35.7442 33.244C35.8256 34.1619 36.5585 34.8908 37.5357 35.0527C37.5357 34.8908 37.5629 34.7558 37.5629 34.5938C37.5629 33.46 37.5629 32.3262 37.5629 31.1114ZM64.5444 35.0797C65.6573 34.7828 66.3088 34.0269 66.3088 33.1091C66.3088 32.1912 65.6302 31.4354 64.5444 31.1384C64.5444 32.4612 64.5444 33.757 64.5444 35.0797Z" fill="black"/>
<path d="M64.7068 77.9756C64.7068 77.2737 64.7068 76.6528 64.7068 76.0319C64.7068 73.6834 64.7068 71.3078 64.7068 68.9592C64.7068 68.7432 64.6797 68.5003 64.7339 68.2843C64.8425 67.7714 65.1683 67.4474 65.7383 67.4474C66.3083 67.4474 66.6612 67.7984 66.7155 68.3653C66.7698 68.8242 66.7426 69.3101 66.7426 69.769C66.7426 72.4686 66.7426 75.1681 66.7426 77.8676C66.8512 77.8946 66.9598 77.9486 67.0684 77.9486C68.6699 77.9486 70.2714 77.9756 71.8729 77.9486C73.4744 77.9216 74.0988 77.3277 73.9088 75.735C73.6645 73.9263 73.2301 72.1176 72.9044 70.3089C72.7687 69.6071 72.6058 68.9052 72.4972 68.2033C72.3887 67.5554 72.7144 67.0425 73.2844 66.9345C73.8273 66.8265 74.3431 67.1505 74.4516 67.7984C74.9674 70.4169 75.5646 73.0355 75.9446 75.654C76.2975 78.0296 74.8588 79.7033 72.443 79.9463C72.0901 79.9733 71.7101 80.0003 71.3572 80.0003C62.9967 80.0003 54.6634 80.0003 46.3029 80.0003C45.2171 80.0003 44.7285 79.6763 44.7285 78.9744C44.7557 78.2996 45.2171 77.9756 46.2757 77.9756C52.1118 77.9756 57.9207 77.9756 63.7567 77.9756C64.0553 77.9756 64.3268 77.9756 64.7068 77.9756Z" fill="black"/>
</g>
<defs>
<clipPath id="clip0_585_4">
<rect width="50" height="69" fill="white" transform="translate(26 11)"/>
</clipPath>
</defs>
</svg>
