<svg width="100" height="100" viewBox="0 0 100 100" fill="none" xmlns="http://www.w3.org/2000/svg">
<circle cx="50" cy="50" r="50" fill="white"/>
<path d="M40.8791 24.935C38.7446 24.5902 37.6174 22.9895 38.121 21.1425C38.4808 19.8373 39.584 19 40.999 19C45.9156 19 50.8562 19 55.7727 19C56.5162 19 57.2597 19 57.9792 19C59.6101 19 60.8572 20.1574 60.9771 21.7335C61.073 23.3343 60.0178 24.6149 58.4109 24.8857C58.3389 24.9104 58.243 24.9104 58.1231 24.935C58.1231 25.1813 58.1231 25.4522 58.1231 25.7231C58.1231 40.8191 58.1231 55.9152 58.1231 71.0113C58.1231 75.3209 55.389 78.8425 51.3118 79.7784C46.0835 80.9851 40.9271 76.8478 40.9031 71.3068C40.8551 65.5196 40.9031 59.7077 40.9031 53.9205C40.9031 44.5131 40.9031 35.1058 40.9031 25.7231C40.8791 25.4768 40.8791 25.2305 40.8791 24.935ZM56.2044 46.0892C55.4849 45.8676 54.8134 45.6952 54.1898 45.4736C52.7269 44.9564 51.2879 44.9564 49.8489 45.4982C47.8822 46.2616 45.9156 46.2616 43.949 45.4736C43.5892 45.3258 43.2055 45.2519 42.7738 45.1288C42.7738 45.4736 42.7738 45.6952 42.7738 45.9168C42.7738 51.2115 42.7738 56.5309 42.7738 61.8256C42.7738 65.0024 42.7258 68.1792 42.7978 71.3561C42.8697 75.6903 46.9709 78.8672 51.048 77.8082C54.1419 77.0202 56.1565 74.3359 56.1804 70.962C56.1804 62.8353 56.1804 54.6839 56.1804 46.5571C56.2044 46.4094 56.2044 46.237 56.2044 46.0892ZM42.8217 24.9104C42.8217 31.0178 42.8217 37.0513 42.8217 43.0848C43.4213 43.2572 43.9969 43.3803 44.5485 43.6019C46.1075 44.2176 47.6424 44.2422 49.2253 43.6512C51.144 42.9124 53.0866 42.937 55.0053 43.7004C55.365 43.8482 55.7487 43.9221 56.1565 44.0452C56.1565 37.6177 56.1565 31.2887 56.1565 24.935C51.6956 24.9104 47.2826 24.9104 42.8217 24.9104ZM49.4891 22.9403C52.2232 22.9403 54.9573 22.9403 57.6914 22.9403C57.8593 22.9403 58.0511 22.9649 58.219 22.9156C58.7227 22.8171 59.0584 22.497 59.0584 21.9552C59.0584 21.4134 58.7467 21.0933 58.243 20.9948C58.0511 20.9455 57.8833 20.9701 57.6914 20.9701C52.2232 20.9701 46.779 20.9701 41.3108 20.9701C41.1189 20.9701 40.9031 20.9455 40.7112 20.9948C40.2315 21.1179 39.9437 21.438 39.9437 21.9552C39.9437 22.4723 40.2315 22.7925 40.7112 22.9156C40.9031 22.9649 41.1189 22.9403 41.3108 22.9403C44.0209 22.9403 46.755 22.9403 49.4891 22.9403Z" fill="black"/>
<path d="M46.6339 28.8507C46.0343 28.8507 45.4347 28.8507 44.8351 28.8507C44.1876 28.8507 43.7559 28.4567 43.7559 27.8903C43.7559 27.3238 44.1636 26.9052 44.8111 26.9052C46.0343 26.8806 47.2334 26.8806 48.4566 26.9052C49.1041 26.9052 49.5119 27.3238 49.5119 27.8903C49.5119 28.4567 49.0802 28.8507 48.4326 28.8507C47.809 28.8507 47.2095 28.8507 46.6339 28.8507Z" fill="black"/>
<path d="M46.6348 31.7816C46.0112 31.7816 45.4117 31.7816 44.7881 31.7816C44.1645 31.7569 43.7808 31.3875 43.7568 30.8211C43.7328 30.2547 44.1645 29.8361 44.8121 29.8114C46.0352 29.7868 47.2344 29.7868 48.4575 29.8114C49.1051 29.8114 49.5128 30.2301 49.5128 30.7965C49.5128 31.3629 49.0811 31.7569 48.4336 31.7816C47.834 31.8062 47.2344 31.7816 46.6348 31.7816Z" fill="black"/>
<path d="M46.6349 32.7658C47.2584 32.7658 47.858 32.7412 48.4816 32.7658C49.0812 32.7905 49.4889 33.1845 49.4889 33.7263C49.4889 34.2927 49.1051 34.7113 48.5056 34.7113C47.2584 34.736 46.0113 34.736 44.7402 34.7113C44.1406 34.7113 43.7329 34.268 43.7569 33.7263C43.7569 33.1599 44.1646 32.7905 44.7881 32.7658C45.3877 32.7658 46.0113 32.7658 46.6349 32.7658Z" fill="black"/>
</svg>
