<svg width="216" height="54" viewBox="0 0 216 54" fill="none" xmlns="http://www.w3.org/2000/svg">
<path d="M188.971 54H26.9829C12.0989 54 0 41.9036 0 26.9772C0 12.0964 12.0989 0 26.9829 0H188.971C203.901 0 215.954 12.0964 215.954 26.9772C216 41.9036 203.901 54 188.971 54Z" fill="url(#paint0_linear_551_1506)"/>
<path d="M188.424 49.3445H27.531C14.9755 49.3445 4.83984 39.1653 4.83984 26.6581C4.83984 14.1509 15.0212 3.97168 27.531 3.97168H188.424C200.979 3.97168 211.115 14.1509 211.115 26.6581C211.161 39.2109 200.979 49.3445 188.424 49.3445Z" fill="url(#paint1_linear_551_1506)"/>
<path opacity="0.31" d="M203.631 33.2397C207.085 24.3037 202.639 14.2608 193.701 10.8082C184.763 7.35565 174.718 11.8009 171.264 20.7369C167.811 29.6729 172.257 39.7158 181.195 43.1684C190.133 46.6209 200.178 42.1757 203.631 33.2397Z" fill="white"/>
<path d="M184.269 35.3302C184.041 35.3302 183.858 35.2389 183.675 35.1019C183.356 34.7824 183.356 34.2803 183.675 33.9608L191.254 26.6573L183.767 20.0842C183.447 19.8103 183.401 19.2625 183.675 18.943C183.949 18.6235 184.497 18.5778 184.817 18.8517L192.989 25.9726C193.172 26.1095 193.263 26.3378 193.263 26.566C193.263 26.7942 193.172 27.0225 193.035 27.1594L184.862 35.0563C184.68 35.2389 184.497 35.3302 184.269 35.3302Z" fill="white"/>
<path d="M23.66 23.7V26.54H28.24V29.18H23.66V32.26H28.84V35H20.24V20.96H28.84V23.7H23.66ZM39.6603 35L36.8003 30.7L34.2803 35H30.4003L34.9003 27.86L30.3003 20.96H34.2803L37.1003 25.2L39.5803 20.96H43.4603L39.0003 28.04L43.6403 35H39.6603ZM56.0572 25.48C56.0572 26.2933 55.8705 27.04 55.4972 27.72C55.1239 28.3867 54.5505 28.9267 53.7772 29.34C53.0039 29.7533 52.0439 29.96 50.8972 29.96H48.7772V35H45.3572V20.96H50.8972C52.0172 20.96 52.9639 21.1533 53.7372 21.54C54.5105 21.9267 55.0905 22.46 55.4772 23.14C55.8639 23.82 56.0572 24.6 56.0572 25.48ZM50.6372 27.24C51.2905 27.24 51.7772 27.0867 52.0972 26.78C52.4172 26.4733 52.5772 26.04 52.5772 25.48C52.5772 24.92 52.4172 24.4867 52.0972 24.18C51.7772 23.8733 51.2905 23.72 50.6372 23.72H48.7772V27.24H50.6372ZM61.2577 32.36H65.7377V35H57.8377V20.96H61.2577V32.36ZM74.0089 35.14C72.6889 35.14 71.4756 34.8333 70.3689 34.22C69.2756 33.6067 68.4022 32.7533 67.7489 31.66C67.1089 30.5533 66.7889 29.3133 66.7889 27.94C66.7889 26.5667 67.1089 25.3333 67.7489 24.24C68.4022 23.1467 69.2756 22.2933 70.3689 21.68C71.4756 21.0667 72.6889 20.76 74.0089 20.76C75.3289 20.76 76.5356 21.0667 77.6289 21.68C78.7356 22.2933 79.6022 23.1467 80.2289 24.24C80.8689 25.3333 81.1889 26.5667 81.1889 27.94C81.1889 29.3133 80.8689 30.5533 80.2289 31.66C79.5889 32.7533 78.7222 33.6067 77.6289 34.22C76.5356 34.8333 75.3289 35.14 74.0089 35.14ZM74.0089 32.02C75.1289 32.02 76.0222 31.6467 76.6889 30.9C77.3689 30.1533 77.7089 29.1667 77.7089 27.94C77.7089 26.7 77.3689 25.7133 76.6889 24.98C76.0222 24.2333 75.1289 23.86 74.0089 23.86C72.8756 23.86 71.9689 24.2267 71.2889 24.96C70.6222 25.6933 70.2889 26.6867 70.2889 27.94C70.2889 29.18 70.6222 30.1733 71.2889 30.92C71.9689 31.6533 72.8756 32.02 74.0089 32.02ZM90.2516 35L87.3316 29.7H86.5116V35H83.0916V20.96H88.8316C89.9382 20.96 90.8782 21.1533 91.6516 21.54C92.4382 21.9267 93.0249 22.46 93.4116 23.14C93.7982 23.8067 93.9916 24.5533 93.9916 25.38C93.9916 26.3133 93.7249 27.1467 93.1916 27.88C92.6716 28.6133 91.8982 29.1333 90.8716 29.44L94.1116 35H90.2516ZM86.5116 27.28H88.6316C89.2582 27.28 89.7249 27.1267 90.0316 26.82C90.3516 26.5133 90.5116 26.08 90.5116 25.52C90.5116 24.9867 90.3516 24.5667 90.0316 24.26C89.7249 23.9533 89.2582 23.8 88.6316 23.8H86.5116V27.28ZM99.5584 23.7V26.54H104.138V29.18H99.5584V32.26H104.738V35H96.1384V20.96H104.738V23.7H99.5584ZM123.757 35H120.337L114.617 26.34V35H111.197V20.96H114.617L120.337 29.66V20.96H123.757V35ZM132.876 35.14C131.556 35.14 130.343 34.8333 129.236 34.22C128.143 33.6067 127.269 32.7533 126.616 31.66C125.976 30.5533 125.656 29.3133 125.656 27.94C125.656 26.5667 125.976 25.3333 126.616 24.24C127.269 23.1467 128.143 22.2933 129.236 21.68C130.343 21.0667 131.556 20.76 132.876 20.76C134.196 20.76 135.403 21.0667 136.496 21.68C137.603 22.2933 138.469 23.1467 139.096 24.24C139.736 25.3333 140.056 26.5667 140.056 27.94C140.056 29.3133 139.736 30.5533 139.096 31.66C138.456 32.7533 137.589 33.6067 136.496 34.22C135.403 34.8333 134.196 35.14 132.876 35.14ZM132.876 32.02C133.996 32.02 134.889 31.6467 135.556 30.9C136.236 30.1533 136.576 29.1667 136.576 27.94C136.576 26.7 136.236 25.7133 135.556 24.98C134.889 24.2333 133.996 23.86 132.876 23.86C131.743 23.86 130.836 24.2267 130.156 24.96C129.489 25.6933 129.156 26.6867 129.156 27.94C129.156 29.18 129.489 30.1733 130.156 30.92C130.836 31.6533 131.743 32.02 132.876 32.02ZM161.279 20.96L157.619 35H153.479L151.239 25.76L148.919 35H144.779L141.219 20.96H144.879L146.899 31.18L149.399 20.96H153.159L155.559 31.18L157.599 20.96H161.279Z" fill="white"/>
<defs>
<linearGradient id="paint0_linear_551_1506" x1="107.99" y1="-0.232159" x2="107.99" y2="53.3986" gradientUnits="userSpaceOnUse">
<stop offset="0.00130208" stop-color="#FF6F61"/>
<stop offset="0.4231" stop-color="#EF564D"/>
<stop offset="0.9987" stop-color="#D62D2D"/>
</linearGradient>
<linearGradient id="paint1_linear_551_1506" x1="107.991" y1="49.3652" x2="107.991" y2="3.97593" gradientUnits="userSpaceOnUse">
<stop offset="0.00130208" stop-color="#FF6F61"/>
<stop offset="0.4231" stop-color="#EF564D"/>
<stop offset="0.9987" stop-color="#D62D2D"/>
</linearGradient>
</defs>
</svg>
