<svg width="100" height="100" viewBox="0 0 100 100" fill="none" xmlns="http://www.w3.org/2000/svg">
<circle cx="50" cy="50" r="50" fill="white"/>
<g clip-path="url(#clip0_585_2)">
<path d="M26 38.781C26 36.032 26 33.283 26 30.534C26 29.6561 26.2743 29.2634 27.0514 28.9631C34.3886 26.0293 41.7486 23.1186 49.0857 20.1847C49.7029 19.9306 50.2743 19.9306 50.8914 20.1847C58.1371 23.0955 65.4057 25.9831 72.6743 28.8707C73.7943 29.3096 74 29.5868 74 30.7881C74 35.2928 74.0229 39.8206 73.9543 44.3253C73.8629 48.7607 73.4286 53.173 72.1029 57.4467C70.4343 62.8292 67.2571 67.1722 63.0286 70.7991C59.2571 74.0332 55.0514 76.5281 50.6629 78.792C50.2057 79.023 49.7486 79.023 49.2914 78.792C44.6057 76.3433 40.08 73.6405 36.1257 70.0829C30.8229 65.3241 27.7371 59.3641 26.6857 52.2951C26.0457 47.8135 26 43.3088 26 38.781ZM71.3943 39.4741C71.3486 39.4741 71.3029 39.4741 71.2571 39.4741C71.2571 36.9099 71.2571 34.3687 71.2571 31.8045C71.2571 31.3887 71.0971 31.2039 70.7314 31.0653C63.9429 28.3856 57.1771 25.6828 50.3886 22.9799C50.16 22.8875 49.8629 22.8875 49.6343 22.9568C42.8229 25.6828 36.0114 28.3856 29.2 31.0884C28.8343 31.227 28.7429 31.4349 28.7429 31.8045C28.7429 33.9298 28.6971 36.0782 28.72 38.2035C28.7429 42.8006 28.7657 47.3746 29.4514 51.9486C30.4343 58.4862 33.3143 63.9381 38.2514 68.281C41.7257 71.3304 45.6343 73.756 49.7029 75.8813C49.8857 75.9737 50.1829 75.9506 50.3657 75.8582C53.6571 74.1256 56.8114 72.1851 59.7829 69.9212C66.6171 64.7697 70.2514 57.8625 70.8686 49.3151C71.12 46.0348 71.2343 42.7544 71.3943 39.4741Z" fill="black"/>
<path d="M47.4849 54.4435C50.8449 51.2324 54.1592 48.0445 57.4734 44.8796C58.6163 43.7939 59.7363 42.7081 60.8792 41.6224C61.6106 40.9294 62.4106 40.9063 62.982 41.5069C63.5306 42.1075 63.462 42.9392 62.7763 43.586C57.9992 48.16 53.222 52.734 48.4449 57.2849C47.6906 58.001 46.9134 57.9779 46.2277 57.1694C44.0563 54.6745 41.8849 52.1796 39.7363 49.6615C39.1192 48.9454 39.1192 48.1138 39.7363 47.5594C40.3534 47.0049 41.1534 47.0973 41.7934 47.8135C43.5763 49.8464 45.3363 51.8792 47.0963 53.9352C47.1877 54.1431 47.3249 54.2818 47.4849 54.4435Z" fill="black"/>
</g>
<defs>
<clipPath id="clip0_585_2">
<rect width="48" height="59" fill="white" transform="translate(26 20)"/>
</clipPath>
</defs>
</svg>
