<svg width="149" height="38" viewBox="0 0 149 38" fill="none" xmlns="http://www.w3.org/2000/svg">
<path d="M129.548 37.0192H18.4979C8.2943 37.0192 0 28.7266 0 18.4939C0 8.29255 8.2943 0 18.4979 0H129.548C139.782 0 148.045 8.29255 148.045 18.4939C148.077 28.7266 139.782 37.0192 129.548 37.0192Z" fill="url(#paint0_linear_551_1659)"/>
<path d="M129.173 33.8275H18.8741C10.2668 33.8275 3.31836 26.8493 3.31836 18.2751C3.31836 9.70092 10.2981 2.72266 18.8741 2.72266H129.173C137.78 2.72266 144.728 9.70092 144.728 18.2751C144.76 26.8806 137.78 33.8275 129.173 33.8275Z" fill="url(#paint1_linear_551_1659)"/>
<path opacity="0.31" d="M139.597 22.7877C141.964 16.6617 138.916 9.77682 132.789 7.40996C126.661 5.04309 119.775 8.09048 117.408 14.2165C115.04 20.3425 118.088 27.2273 124.216 29.5942C130.343 31.961 137.229 28.9137 139.597 22.7877Z" fill="white"/>
<path d="M126.323 24.2207C126.167 24.2207 126.041 24.1581 125.916 24.0642C125.697 23.8452 125.697 23.501 125.916 23.2819L131.112 18.2751L125.979 13.769C125.76 13.5812 125.728 13.2057 125.916 12.9867C126.104 12.7676 126.48 12.7363 126.699 12.9241L132.301 17.8057C132.427 17.8996 132.489 18.0561 132.489 18.2125C132.489 18.369 132.427 18.5254 132.333 18.6193L126.73 24.033C126.605 24.1581 126.48 24.2207 126.323 24.2207Z" fill="white"/>
<path d="M20.8369 18.7498C21.4876 18.8884 22.0103 19.2138 22.4049 19.7258C22.7996 20.2271 22.9969 20.8031 22.9969 21.4538C22.9969 22.3924 22.6663 23.1391 22.0049 23.6938C21.3543 24.2378 20.4423 24.5098 19.2689 24.5098H14.0369V13.2778H19.0929C20.2343 13.2778 21.1249 13.5391 21.7649 14.0618C22.4156 14.5844 22.7409 15.2938 22.7409 16.1898C22.7409 16.8511 22.5649 17.4004 22.2129 17.8378C21.8716 18.2751 21.4129 18.5791 20.8369 18.7498ZM16.7729 17.8218H18.5649C19.0129 17.8218 19.3543 17.7258 19.5889 17.5338C19.8343 17.3311 19.9569 17.0378 19.9569 16.6538C19.9569 16.2698 19.8343 15.9764 19.5889 15.7738C19.3543 15.5711 19.0129 15.4698 18.5649 15.4698H16.7729V17.8218ZM18.7889 22.3018C19.2476 22.3018 19.5996 22.2004 19.8449 21.9978C20.1009 21.7844 20.2289 21.4804 20.2289 21.0858C20.2289 20.6911 20.0956 20.3818 19.8289 20.1578C19.5729 19.9338 19.2156 19.8218 18.7569 19.8218H16.7729V22.3018H18.7889ZM29.8958 24.6218C28.8398 24.6218 27.8691 24.3764 26.9838 23.8858C26.1091 23.3951 25.4105 22.7124 24.8878 21.8378C24.3758 20.9524 24.1198 19.9604 24.1198 18.8618C24.1198 17.7631 24.3758 16.7764 24.8878 15.9018C25.4105 15.0271 26.1091 14.3444 26.9838 13.8538C27.8691 13.3631 28.8398 13.1178 29.8958 13.1178C30.9518 13.1178 31.9171 13.3631 32.7918 13.8538C33.6771 14.3444 34.3705 15.0271 34.8718 15.9018C35.3838 16.7764 35.6398 17.7631 35.6398 18.8618C35.6398 19.9604 35.3838 20.9524 34.8718 21.8378C34.3598 22.7124 33.6665 23.3951 32.7918 23.8858C31.9171 24.3764 30.9518 24.6218 29.8958 24.6218ZM29.8958 22.1258C30.7918 22.1258 31.5065 21.8271 32.0398 21.2298C32.5838 20.6324 32.8558 19.8431 32.8558 18.8618C32.8558 17.8698 32.5838 17.0804 32.0398 16.4938C31.5065 15.8964 30.7918 15.5978 29.8958 15.5978C28.9891 15.5978 28.2638 15.8911 27.7198 16.4778C27.1865 17.0644 26.9198 17.8591 26.9198 18.8618C26.9198 19.8538 27.1865 20.6484 27.7198 21.2458C28.2638 21.8324 28.9891 22.1258 29.8958 22.1258ZM42.4739 24.6218C41.4179 24.6218 40.4473 24.3764 39.5619 23.8858C38.6873 23.3951 37.9886 22.7124 37.4659 21.8378C36.9539 20.9524 36.6979 19.9604 36.6979 18.8618C36.6979 17.7631 36.9539 16.7764 37.4659 15.9018C37.9886 15.0271 38.6873 14.3444 39.5619 13.8538C40.4473 13.3631 41.4179 13.1178 42.4739 13.1178C43.5299 13.1178 44.4953 13.3631 45.3699 13.8538C46.2553 14.3444 46.9486 15.0271 47.4499 15.9018C47.9619 16.7764 48.2179 17.7631 48.2179 18.8618C48.2179 19.9604 47.9619 20.9524 47.4499 21.8378C46.9379 22.7124 46.2446 23.3951 45.3699 23.8858C44.4953 24.3764 43.5299 24.6218 42.4739 24.6218ZM42.4739 22.1258C43.3699 22.1258 44.0846 21.8271 44.6179 21.2298C45.1619 20.6324 45.4339 19.8431 45.4339 18.8618C45.4339 17.8698 45.1619 17.0804 44.6179 16.4938C44.0846 15.8964 43.3699 15.5978 42.4739 15.5978C41.5673 15.5978 40.8419 15.8911 40.2979 16.4778C39.7646 17.0644 39.4979 17.8591 39.4979 18.8618C39.4979 19.8538 39.7646 20.6484 40.2979 21.2458C40.8419 21.8324 41.5673 22.1258 42.4739 22.1258ZM56.252 24.5098L52.476 19.5498V24.5098H49.74V13.2778H52.476V18.2058L56.22 13.2778H59.436L55.084 18.7818L59.596 24.5098H56.252ZM74.3349 24.5098H71.5989L67.0229 17.5818V24.5098H64.2869V13.2778H67.0229L71.5989 20.2378V13.2778H74.3349V24.5098ZM81.6302 24.6218C80.5742 24.6218 79.6035 24.3764 78.7182 23.8858C77.8435 23.3951 77.1448 22.7124 76.6222 21.8378C76.1102 20.9524 75.8542 19.9604 75.8542 18.8618C75.8542 17.7631 76.1102 16.7764 76.6222 15.9018C77.1448 15.0271 77.8435 14.3444 78.7182 13.8538C79.6035 13.3631 80.5742 13.1178 81.6302 13.1178C82.6862 13.1178 83.6515 13.3631 84.5262 13.8538C85.4115 14.3444 86.1048 15.0271 86.6062 15.9018C87.1182 16.7764 87.3742 17.7631 87.3742 18.8618C87.3742 19.9604 87.1182 20.9524 86.6062 21.8378C86.0942 22.7124 85.4008 23.3951 84.5262 23.8858C83.6515 24.3764 82.6862 24.6218 81.6302 24.6218ZM81.6302 22.1258C82.5262 22.1258 83.2408 21.8271 83.7742 21.2298C84.3182 20.6324 84.5902 19.8431 84.5902 18.8618C84.5902 17.8698 84.3182 17.0804 83.7742 16.4938C83.2408 15.8964 82.5262 15.5978 81.6302 15.5978C80.7235 15.5978 79.9982 15.8911 79.4542 16.4778C78.9208 17.0644 78.6542 17.8591 78.6542 18.8618C78.6542 19.8538 78.9208 20.6484 79.4542 21.2458C79.9982 21.8324 80.7235 22.1258 81.6302 22.1258ZM104.352 13.2778L101.424 24.5098H98.1123L96.3203 17.1178L94.4643 24.5098H91.1523L88.3043 13.2778H91.2323L92.8483 21.4538L94.8483 13.2778H97.8563L99.7763 21.4538L101.408 13.2778H104.352Z" fill="white"/>
<defs>
<linearGradient id="paint0_linear_551_1659" x1="74.0318" y1="-0.159154" x2="74.0318" y2="36.6069" gradientUnits="userSpaceOnUse">
<stop offset="0.00130208" stop-color="#FF6F61"/>
<stop offset="0.4231" stop-color="#EF564D"/>
<stop offset="0.9987" stop-color="#D62D2D"/>
</linearGradient>
<linearGradient id="paint1_linear_551_1659" x1="74.0324" y1="33.8417" x2="74.0324" y2="2.72557" gradientUnits="userSpaceOnUse">
<stop offset="0.00130208" stop-color="#FF6F61"/>
<stop offset="0.4231" stop-color="#EF564D"/>
<stop offset="0.9987" stop-color="#D62D2D"/>
</linearGradient>
</defs>
</svg>
